<svg id="visual" viewBox="0 0 900 600" width="900" height="600" xmlns="http://www.w3.org/2000/svg" xmlns:xlink="http://www.w3.org/1999/xlink" version="1.1"><path d="M0 191L37.5 187.7C75 184.3 150 177.7 225 208.2C300 238.7 375 306.3 450 327.7C525 349 600 324 675 292.2C750 260.3 825 221.7 862.5 202.3L900 183L900 601L862.5 601C825 601 750 601 675 601C600 601 525 601 450 601C375 601 300 601 225 601C150 601 75 601 37.5 601L0 601Z" fill="#1d274d" stroke-linecap="round" stroke-linejoin="miter"></path></svg>